<?xml version="1.0" standalone="no"?>
<!DOCTYPE svg PUBLIC "-//W3C//DTD SVG 20010904//EN"
 "http://www.w3.org/TR/2001/REC-SVG-20010904/DTD/svg10.dtd">
<svg version="1.0" xmlns="http://www.w3.org/2000/svg"
 width="700.000000pt" height="700.000000pt" viewBox="0 0 700.000000 700.000000"
 preserveAspectRatio="xMidYMid meet">
<metadata>
Created by potrace 1.11, written by Peter Selinger 2001-2013
</metadata>
<g transform="translate(0.000000,700.000000) scale(0.100000,-0.100000)"
fill="#000000" stroke="none">
<path d="M1145 6330 c-69 -21 -97 -71 -96 -173 0 -58 32 -222 46 -235 2 -3
110 -5 240 -5 232 0 235 0 236 -21 1 -12 2 -48 4 -81 38 -662 37 -3751 0
-4540 -2 -33 -3 -71 -4 -85 l-1 -26 -192 1 c-266 1 -313 -10 -347 -80 -26 -54
-16 -198 21 -300 l15 -40 1004 0 c1134 0 1051 -6 1089 78 25 54 20 183 -9 277
l-20 65 -291 0 c-253 -1 -291 1 -294 15 -10 34 -23 597 -31 1413 -4 409 -3
467 10 467 8 0 18 1 23 2 94 22 245 33 462 32 166 -1 196 -3 289 -27 97 -25
261 -92 261 -107 0 -4 11 -12 25 -18 13 -6 39 -24 57 -39 163 -142 299 -362
436 -708 58 -145 76 -201 216 -633 129 -400 242 -633 356 -736 73 -66 225
-124 370 -140 30 -3 84 -10 120 -15 73 -9 460 -7 530 3 179 26 271 77 302 166
17 50 13 173 -9 254 l-18 70 -70 3 c-165 7 -293 55 -383 143 -74 74 -177 242
-294 480 -283 578 -361 731 -398 788 -22 35 -40 66 -40 69 0 4 -44 72 -97 152
-144 213 -284 350 -459 448 -77 44 -217 103 -242 103 -26 0 0 16 48 29 145 41
424 166 574 259 135 83 199 134 321 256 267 268 394 582 400 986 7 481 -144
830 -460 1065 -44 33 -91 66 -104 74 -82 46 -115 62 -191 94 -136 56 -402 133
-490 142 -14 1 -34 5 -45 8 -11 3 -42 9 -70 12 -27 4 -61 9 -75 11 -14 2 -54
6 -90 10 -36 3 -68 7 -71 9 -3 2 -45 7 -95 10 -49 4 -109 9 -134 12 -87 10
-2305 12 -2335 3z m2165 -605 c161 -28 219 -41 310 -72 102 -33 280 -119 280
-134 0 -4 9 -10 20 -14 33 -10 167 -149 213 -222 62 -95 114 -224 137 -338 5
-27 11 -59 14 -70 17 -81 23 -305 11 -402 -60 -467 -410 -751 -1020 -829 -27
-3 -58 -8 -68 -10 -59 -11 -537 -22 -681 -15 -18 1 -18 22 -12 789 7 823 9
947 21 1152 6 108 17 161 32 146 2 -2 21 0 41 5 20 5 71 11 112 15 41 3 77 8
79 10 7 6 472 -4 511 -11z"/>
</g>
</svg>
